<?xml version="1.0" standalone="no"?>
<!DOCTYPE svg PUBLIC "-//W3C//DTD SVG 20010904//EN"
 "http://www.w3.org/TR/2001/REC-SVG-20010904/DTD/svg10.dtd">
<svg version="1.0" xmlns="http://www.w3.org/2000/svg"
 width="1080.000000pt" height="1080.000000pt" viewBox="0 0 1080.000000 1080.000000"
 preserveAspectRatio="xMidYMid meet">
<metadata>
Created by potrace 1.14, written by Peter Selinger 2001-2017
</metadata>
<g transform="translate(0.000000,1080.000000) scale(0.100000,-0.100000)"
fill="#000000" stroke="none">
<path d="M5210 10030 c0 -3 -26 -5 -57 -4 -32 1 -66 -2 -75 -7 -10 -6 -19 -5
-23 1 -4 6 -12 7 -18 3 -7 -5 -33 -9 -59 -8 -27 0 -48 -2 -48 -5 0 -3 -19 -6
-43 -6 -23 -1 -60 -5 -82 -9 -22 -3 -53 -7 -70 -8 -16 -1 -34 -5 -40 -8 -5 -3
-22 -5 -37 -4 -16 0 -28 -2 -28 -5 0 -4 -12 -7 -27 -7 -16 -1 -41 -4 -58 -7
-86 -17 -101 -19 -112 -17 -7 1 -13 -2 -13 -7 0 -5 -11 -8 -25 -7 -14 2 -25 0
-25 -5 0 -4 -8 -7 -17 -7 -27 2 -173 -33 -173 -41 0 -4 -14 -8 -32 -8 -18 -1
-34 -6 -36 -13 -2 -6 -7 -9 -12 -6 -4 3 -26 -2 -49 -10 -23 -8 -43 -14 -46
-15 -33 -4 -67 -14 -71 -21 -3 -5 -10 -7 -15 -4 -5 4 -9 1 -9 -5 0 -6 -4 -9
-9 -6 -5 3 -28 -3 -52 -13 -24 -11 -47 -17 -51 -15 -4 3 -8 0 -8 -6 0 -7 -7
-10 -15 -6 -8 3 -15 2 -15 -3 0 -7 -16 -14 -60 -26 -29 -7 -50 -18 -50 -25 0
-4 -8 -7 -17 -5 -10 1 -26 -4 -35 -13 -10 -8 -18 -12 -18 -7 0 4 -6 2 -13 -4
-8 -6 -24 -12 -36 -14 -13 -2 -26 -9 -30 -16 -5 -7 -11 -12 -15 -12 -20 3 -26
0 -21 -9 3 -6 -1 -7 -9 -4 -10 4 -16 1 -16 -7 0 -7 -3 -9 -6 -6 -4 3 -16 1
-28 -5 -11 -7 -25 -12 -29 -13 -4 0 -11 -4 -15 -10 -4 -5 -16 -12 -27 -13 -11
-2 -21 -8 -23 -13 -2 -5 -10 -9 -19 -9 -8 0 -27 -8 -41 -19 -15 -10 -38 -22
-52 -26 -14 -4 -28 -13 -32 -19 -4 -6 -11 -11 -15 -12 -20 -1 -82 -38 -77 -46
3 -5 2 -7 -3 -6 -14 4 -53 -13 -53 -23 0 -5 -5 -9 -10 -9 -6 0 -28 -11 -50
-25 -22 -14 -40 -23 -40 -20 0 3 -9 -3 -19 -12 -38 -35 -51 -44 -51 -36 0 4
-6 1 -13 -8 -7 -9 -22 -19 -35 -23 -12 -4 -19 -12 -16 -18 4 -6 1 -9 -6 -6 -8
2 -21 -3 -30 -11 -9 -9 -27 -23 -40 -31 -12 -8 -29 -21 -36 -28 -8 -7 -14 -10
-14 -5 0 4 -5 0 -11 -9 -5 -10 -14 -18 -19 -18 -9 0 -41 -25 -90 -72 -16 -14
-30 -24 -32 -22 -2 2 -25 -16 -51 -40 -26 -23 -47 -41 -47 -40 0 2 -9 -4 -19
-13 -11 -9 -18 -20 -15 -25 3 -4 -3 -5 -12 -1 -10 4 -15 2 -11 -3 3 -6 -7 -18
-24 -28 -16 -10 -26 -22 -23 -28 4 -6 2 -8 -4 -4 -6 3 -18 -4 -26 -16 -9 -12
-16 -19 -16 -15 0 4 -8 -1 -18 -10 -11 -10 -17 -21 -15 -25 2 -5 -2 -8 -9 -8
-7 0 -24 -13 -38 -29 -13 -17 -27 -28 -32 -25 -4 3 -8 -1 -8 -9 0 -8 -7 -18
-16 -21 -8 -3 -12 -10 -9 -16 6 -9 -8 -14 -27 -11 -5 0 -8 -4 -8 -9 0 -6 -24
-34 -53 -63 -29 -29 -79 -83 -112 -122 -33 -38 -70 -81 -82 -95 -13 -14 -23
-31 -23 -38 0 -7 -5 -10 -10 -7 -6 3 -10 0 -10 -7 0 -7 -9 -19 -20 -26 -11 -7
-20 -17 -20 -24 0 -6 -13 -24 -30 -39 -16 -16 -27 -29 -25 -29 6 0 -6 -17 -37
-51 -10 -10 -19 -22 -20 -26 -2 -5 -7 -7 -12 -5 -5 2 -6 -4 -3 -12 3 -8 -1
-17 -10 -20 -9 -4 -13 -9 -10 -12 8 -8 -16 -33 -26 -27 -4 2 -6 1 -5 -4 4 -16
-14 -53 -23 -48 -5 4 -9 -1 -9 -9 0 -8 -6 -21 -13 -28 -6 -7 -21 -30 -32 -50
-11 -21 -24 -38 -29 -38 -5 0 -7 -3 -3 -6 3 -3 -3 -15 -13 -27 -11 -11 -17
-23 -15 -27 3 -5 -2 -11 -11 -14 -9 -3 -14 -12 -11 -19 2 -6 -2 -16 -9 -22 -7
-5 -14 -16 -16 -24 -2 -8 -11 -23 -20 -33 -10 -10 -18 -25 -18 -34 0 -9 -5
-12 -12 -8 -7 5 -8 3 -3 -6 4 -7 3 -15 -2 -19 -5 -3 -24 -37 -42 -76 -19 -38
-38 -73 -43 -76 -6 -3 -9 -9 -8 -13 4 -12 -24 -71 -36 -79 -7 -4 -11 -14 -8
-22 4 -8 1 -15 -7 -15 -7 0 -9 -3 -6 -7 4 -3 0 -17 -8 -30 -9 -13 -12 -23 -9
-23 4 0 0 -8 -9 -18 -10 -10 -14 -22 -10 -25 3 -4 1 -7 -5 -7 -7 0 -12 -7 -12
-15 0 -8 -4 -15 -9 -15 -6 0 -8 -9 -6 -20 2 -11 0 -20 -5 -20 -5 0 -12 -10
-16 -22 -5 -13 -9 -25 -10 -28 -1 -3 -5 -15 -9 -27 -4 -13 -12 -23 -17 -23 -6
0 -8 -7 -5 -15 4 -8 2 -17 -4 -20 -5 -4 -7 -11 -4 -16 4 -5 2 -9 -3 -9 -9 0
-26 -53 -25 -77 0 -7 -3 -13 -8 -13 -4 0 -11 -16 -15 -35 -3 -19 -11 -35 -17
-35 -6 0 -8 -3 -4 -6 3 -4 0 -21 -8 -39 -7 -19 -11 -36 -7 -39 3 -3 0 -6 -7
-6 -8 0 -11 -8 -8 -20 3 -11 1 -20 -4 -20 -5 0 -9 -11 -9 -24 0 -14 -4 -27
-10 -31 -5 -3 -7 -12 -3 -20 3 -8 1 -15 -4 -15 -8 0 -12 -15 -15 -57 -1 -7 -4
-13 -8 -13 -3 0 -6 -8 -7 -17 -1 -10 -4 -31 -8 -48 -4 -16 -8 -37 -10 -45 -2
-8 -4 -15 -5 -15 -3 0 -12 -42 -13 -67 -1 -16 -4 -28 -7 -28 -3 0 -7 -17 -8
-37 -2 -20 -7 -42 -12 -48 -5 -6 -8 -21 -5 -33 2 -12 0 -22 -4 -22 -4 0 -7
-10 -6 -22 1 -13 -2 -31 -7 -42 -7 -12 -7 -16 0 -12 6 3 4 -15 -4 -40 -7 -26
-11 -51 -8 -56 4 -6 0 -14 -7 -19 -12 -8 -12 -11 1 -19 8 -5 10 -10 4 -10 -6
0 -10 -11 -9 -25 2 -14 0 -27 -4 -29 -4 -3 -7 -23 -6 -46 1 -22 -2 -40 -7 -40
-5 0 -4 -9 2 -19 7 -14 7 -22 0 -26 -6 -4 -10 -12 -9 -18 1 -7 1 -43 0 -80 -1
-51 -4 -66 -13 -61 -10 5 -10 4 -1 -6 8 -8 9 -20 3 -36 -6 -16 -6 -24 1 -24 6
0 7 -5 3 -12 -11 -18 -13 -68 -2 -74 5 -4 5 -10 0 -17 -5 -7 -9 -27 -8 -45 0
-17 -1 -32 -4 -32 -3 0 -6 -9 -6 -20 0 -11 3 -20 6 -20 3 0 5 -36 5 -80 -1
-44 3 -80 7 -80 4 0 3 -11 -2 -25 -6 -16 -6 -25 1 -25 6 0 6 -8 -2 -21 -6 -12
-7 -19 -1 -15 6 3 10 -23 12 -67 2 -72 7 -142 10 -142 1 0 5 -41 14 -145 2
-25 7 -53 11 -62 4 -10 5 -23 2 -30 -2 -7 2 -28 9 -46 7 -18 9 -30 4 -27 -6 4
-6 -4 0 -20 6 -15 12 -43 14 -63 2 -21 7 -45 11 -55 4 -10 8 -31 9 -47 0 -16
6 -32 12 -34 6 -2 10 -20 9 -40 -1 -20 1 -36 5 -36 4 0 8 -12 8 -27 0 -15 5
-29 11 -31 9 -3 9 -8 1 -17 -8 -9 -8 -15 0 -20 6 -3 8 -11 5 -16 -4 -5 -1 -9
5 -9 6 0 8 -4 5 -10 -3 -5 -3 -16 2 -22 4 -7 8 -21 9 -30 1 -10 3 -20 4 -23 1
-3 3 -8 5 -12 1 -5 4 -15 8 -23 10 -26 31 -105 29 -112 -1 -5 2 -8 6 -8 5 0
15 -25 22 -55 7 -30 17 -55 22 -55 4 0 7 -3 6 -7 -4 -12 24 -103 31 -103 4 0
7 -10 8 -22 1 -11 6 -24 10 -27 4 -3 10 -15 11 -26 2 -11 8 -24 13 -29 5 -6 9
-20 9 -32 0 -12 4 -24 9 -26 5 -1 11 -12 13 -23 1 -11 5 -22 8 -25 12 -11 53
-101 53 -115 0 -8 4 -15 9 -15 4 0 8 -9 8 -20 0 -11 5 -20 10 -20 6 0 10 -7
10 -15 0 -8 5 -15 11 -15 5 0 8 -4 4 -9 -3 -5 -1 -12 5 -16 6 -4 8 -11 5 -16
-4 -5 -1 -9 5 -9 7 0 9 -7 6 -16 -3 -8 -2 -13 2 -10 4 2 21 -23 37 -57 16 -34
35 -68 42 -75 7 -8 11 -18 8 -23 -4 -5 -1 -9 4 -9 6 0 11 -5 11 -11 0 -6 9
-22 20 -36 11 -14 18 -29 15 -33 -3 -4 2 -10 10 -14 8 -3 15 -12 15 -21 0 -8
5 -15 11 -15 5 0 8 -4 5 -9 -3 -4 6 -21 19 -37 14 -16 25 -35 25 -41 0 -7 5
-13 12 -13 6 0 9 -3 5 -6 -3 -4 -1 -12 6 -20 22 -24 32 -39 46 -66 8 -15 19
-24 25 -21 6 3 8 3 4 -2 -4 -4 -3 -14 3 -22 6 -7 9 -13 5 -13 -3 0 7 -12 22
-27 15 -16 28 -34 30 -41 1 -6 10 -21 20 -31 9 -11 26 -32 37 -46 11 -15 30
-37 42 -50 12 -13 19 -26 16 -29 -3 -3 2 -8 11 -12 9 -3 16 -12 16 -20 0 -8 7
-14 15 -14 8 0 15 -7 15 -15 0 -7 8 -19 17 -24 10 -6 14 -11 10 -11 -4 0 10
-18 32 -40 22 -22 37 -40 35 -40 -3 0 15 -20 38 -44 24 -25 75 -78 113 -119
39 -41 73 -73 77 -70 5 2 8 -3 8 -11 0 -8 9 -18 20 -21 11 -3 20 -13 20 -21 0
-8 3 -13 8 -11 9 4 52 -40 44 -47 -3 -3 2 -6 11 -6 9 0 22 -8 29 -19 17 -24
134 -123 145 -123 4 1 13 -9 20 -21 7 -12 12 -18 13 -13 0 5 11 -2 24 -15 34
-33 54 -49 63 -49 5 0 15 -9 23 -20 8 -11 20 -20 28 -20 7 0 10 -4 7 -10 -3
-5 3 -10 13 -10 11 0 23 -7 26 -16 3 -8 10 -13 14 -10 5 3 15 -4 22 -15 8 -10
20 -19 27 -19 7 0 13 -3 13 -7 0 -5 23 -21 51 -38 28 -16 58 -37 67 -45 10 -9
34 -24 55 -35 20 -11 37 -23 37 -27 0 -5 6 -8 13 -8 7 0 22 -8 33 -18 11 -9
26 -18 34 -20 7 -2 25 -12 40 -22 15 -10 33 -20 41 -22 8 -2 16 -6 19 -9 3 -4
48 -29 101 -57 53 -27 103 -53 110 -58 8 -5 20 -9 28 -11 8 -1 18 -8 22 -15 5
-7 9 -9 9 -4 0 4 11 1 25 -8 13 -9 31 -16 40 -16 10 0 13 -5 9 -12 -4 -6 -3
-8 2 -5 9 5 49 -9 96 -34 10 -5 25 -9 33 -9 8 0 15 -4 15 -9 0 -7 39 -22 60
-23 3 0 14 -5 25 -11 11 -6 25 -12 30 -13 25 -6 81 -30 86 -37 3 -5 9 -8 13
-8 16 3 96 -22 96 -30 0 -4 9 -6 20 -4 11 2 20 -1 20 -7 0 -5 7 -8 15 -4 8 3
15 1 15 -5 0 -6 4 -8 8 -5 5 3 19 -1 33 -8 13 -7 26 -12 29 -12 19 -1 148 -39
159 -48 12 -9 13 -8 6 4 -7 12 -6 13 6 3 8 -6 26 -14 39 -16 85 -16 101 -20
105 -26 2 -4 18 -6 34 -5 17 1 31 -1 31 -5 0 -4 15 -9 33 -10 37 -2 81 -8 85
-11 4 -4 15 -6 80 -14 34 -4 65 -12 68 -17 3 -6 11 -5 20 2 8 6 14 7 14 2 0
-5 10 -9 23 -8 12 1 25 -3 29 -9 5 -7 8 -7 8 2 0 8 5 10 12 6 14 -9 64 -14
175 -17 40 -1 73 -4 73 -7 0 -3 53 -7 118 -9 227 -6 342 -6 342 1 0 4 11 3 25
-2 16 -6 26 -6 31 1 4 8 9 7 15 -2 5 -8 9 -9 9 -4 0 6 21 11 48 11 26 1 90 4
142 9 52 4 102 7 110 8 8 0 20 4 27 9 7 6 14 5 18 -2 4 -7 11 -8 18 -2 7 5 22
8 35 7 12 -1 22 1 22 5 0 3 21 6 46 5 25 0 47 2 49 5 2 3 18 7 36 8 18 2 36 7
40 13 5 8 9 8 13 0 5 -8 13 -8 26 -1 11 6 23 9 27 8 4 -1 22 1 38 5 17 4 41 9
55 11 14 2 37 9 51 14 15 6 30 8 33 5 3 -4 6 -2 6 4 0 5 10 9 22 8 13 -1 44 6
70 16 27 9 46 13 43 8 -4 -5 1 -6 9 -3 9 3 16 10 16 15 0 4 7 6 15 3 8 -4 22
-1 30 6 8 7 22 10 30 6 8 -3 15 0 15 6 0 6 3 8 7 5 3 -4 11 -3 17 2 7 6 25 13
41 16 34 7 58 13 65 15 3 1 8 2 13 1 4 0 7 4 7 11 0 6 3 9 6 6 3 -3 32 4 64
17 32 13 61 20 64 17 3 -3 6 0 6 7 0 7 4 10 9 6 5 -3 12 -1 16 5 4 6 11 8 16
5 5 -4 9 -2 9 3 0 5 6 9 13 9 6 0 34 10 60 22 27 12 57 23 67 24 10 1 16 5 14
9 -3 4 0 9 5 9 6 1 14 3 19 4 4 2 17 6 30 10 12 4 22 12 22 18 0 6 3 7 7 4 3
-4 13 -1 21 6 13 10 14 9 7 -2 -5 -8 8 -2 28 13 20 15 39 27 42 26 10 -3 65
22 65 29 0 4 9 7 20 8 11 1 27 9 36 17 8 9 24 16 34 16 10 0 20 5 22 12 2 6
11 12 19 14 9 1 35 14 58 28 23 15 52 31 64 36 23 10 31 15 105 63 24 15 47
27 51 27 4 0 16 9 26 20 10 11 20 18 23 16 2 -3 10 0 18 7 34 30 44 37 44 30
0 -4 4 -3 8 2 4 6 48 37 97 70 50 33 92 63 93 67 2 5 7 6 12 3 5 -3 11 4 15
15 4 11 11 18 16 15 5 -4 9 -1 9 6 0 7 3 10 6 7 3 -3 18 6 33 20 16 15 43 38
61 52 18 14 41 33 51 42 11 10 21 18 24 18 3 0 26 20 50 44 25 24 45 42 45 39
0 -3 16 11 35 31 19 20 37 36 39 36 12 0 144 139 138 145 -4 4 -2 6 3 5 17 -4
39 0 33 5 -3 3 19 30 49 60 29 30 51 55 48 55 -3 0 12 17 33 39 33 34 108 118
132 147 5 7 6 15 3 18 -4 3 -1 6 6 6 7 0 9 5 5 12 -4 6 -3 8 4 4 6 -3 18 7 28
23 10 17 21 28 26 25 4 -3 8 2 8 10 0 8 10 24 22 36 12 11 18 20 13 20 -4 0 4
11 19 25 14 13 26 26 26 29 0 7 70 106 87 124 7 8 11 18 8 23 -4 5 -2 9 3 9 9
0 62 77 62 91 0 5 5 9 10 9 6 0 10 7 10 15 0 8 4 15 9 15 5 0 12 7 15 16 4 10
2 13 -7 8 -6 -4 -1 6 13 22 14 16 31 40 38 53 8 13 23 40 34 60 11 20 30 49
41 65 13 18 15 26 6 21 -10 -6 -9 -3 3 11 19 22 118 212 118 227 0 5 8 16 18
24 9 8 11 12 4 8 -7 -4 -4 8 8 27 11 18 20 41 20 51 0 9 5 17 10 17 6 0 10 9
10 19 0 11 5 23 10 26 6 4 8 11 5 16 -4 5 1 12 9 15 9 3 14 10 11 14 -3 4 3
25 12 46 9 22 17 45 17 52 1 7 6 16 11 20 6 4 12 14 14 22 2 8 4 20 6 25 1 6
7 23 13 38 7 16 12 34 12 41 0 7 3 16 7 20 11 11 32 79 27 88 -3 4 0 8 5 8 6
0 10 3 9 8 -1 4 5 27 12 52 7 25 15 54 17 65 2 11 8 22 13 23 6 2 8 7 6 10 -2
4 9 59 25 122 16 63 29 123 29 133 0 9 3 17 8 17 4 0 8 12 8 28 1 15 5 43 9
62 5 19 9 45 9 58 1 12 3 22 7 22 3 0 6 10 7 23 1 12 4 38 6 57 3 19 7 51 10
70 3 19 5 35 6 35 1 0 3 16 5 35 2 19 7 62 11 95 4 33 7 72 7 87 0 17 3 25 10
21 6 -4 7 -1 2 8 -13 19 -14 49 -2 49 5 0 4 6 -2 13 -6 8 -8 17 -4 21 23 23
21 696 -2 696 -5 0 -3 5 5 10 8 5 10 10 5 10 -6 0 -11 28 -13 63 -4 96 -6 111
-17 119 -6 5 -5 8 3 8 9 0 10 5 3 18 -5 9 -9 20 -10 25 -1 4 -1 8 -2 10 0 1
-2 22 -4 47 -1 25 -4 45 -5 45 -2 0 -8 32 -15 80 -3 22 -9 56 -13 75 -5 19 -9
38 -10 43 -1 4 -3 9 -3 12 -1 3 -3 14 -4 25 -1 11 -4 22 -5 25 -1 3 -3 14 -4
24 0 11 -4 23 -8 27 -5 4 -8 20 -8 35 0 15 -4 30 -9 33 -5 3 -9 17 -10 31 -3
47 -4 55 -11 55 -4 0 -7 6 -8 13 -2 24 -8 47 -15 53 -4 4 -7 17 -7 29 0 12 -3
25 -7 29 -4 4 -8 13 -8 19 0 7 -11 46 -25 87 -13 41 -23 78 -22 83 1 4 -2 7
-6 7 -5 0 -9 7 -10 15 -1 8 -3 22 -4 30 -1 8 -6 15 -11 15 -6 0 -7 3 -4 7 4 3
0 14 -9 24 -10 11 -12 19 -4 24 7 4 3 15 -10 32 -11 14 -20 29 -20 33 0 4 -7
24 -15 44 -8 20 -15 38 -15 41 0 3 -7 19 -15 35 -8 16 -15 32 -15 35 0 3 -9
21 -20 40 -11 20 -20 42 -20 50 0 8 -4 15 -10 15 -5 0 -10 6 -10 13 0 17 -51
120 -63 128 -5 3 -9 10 -9 15 -2 25 -11 44 -21 44 -6 0 -7 3 -4 6 4 4 -3 20
-14 35 -11 16 -17 29 -14 29 4 0 -1 7 -9 16 -9 8 -14 20 -11 25 4 5 2 9 -3 9
-4 0 -23 27 -42 60 -19 33 -37 60 -42 60 -4 0 -7 3 -7 8 4 21 -2 32 -13 26 -7
-4 -10 -4 -6 1 9 10 -14 55 -50 97 -15 18 -34 46 -42 63 -8 16 -27 42 -42 58
-14 15 -34 44 -43 63 -9 19 -20 34 -25 34 -6 0 -10 7 -10 15 0 8 -6 15 -13 15
-6 0 -18 12 -24 28 -7 15 -26 42 -43 60 -16 18 -30 37 -30 41 0 4 -16 22 -35
41 -19 18 -33 36 -30 38 6 7 -22 32 -36 32 -7 0 -10 3 -6 6 3 3 -4 16 -16 29
-47 48 -77 85 -77 97 0 6 -3 9 -6 5 -7 -7 -54 41 -54 55 0 5 -4 7 -9 4 -4 -3
-13 6 -20 20 -6 14 -15 23 -20 20 -4 -3 -13 5 -20 17 -7 12 -25 31 -41 42 -16
11 -34 30 -41 42 -7 12 -15 21 -18 20 -3 -1 -26 17 -51 41 -49 46 -69 63 -117
103 -18 15 -30 29 -27 32 3 3 -4 8 -15 12 -11 3 -33 18 -50 33 -32 29 -56 48
-92 72 -12 8 -29 23 -38 33 -8 9 -21 17 -28 17 -7 0 -13 5 -13 11 0 5 -4 7
-10 4 -5 -3 -10 -2 -10 4 0 6 -22 25 -50 43 -27 18 -50 36 -50 40 0 5 -7 8
-15 8 -9 0 -18 7 -21 15 -4 8 -10 13 -14 10 -4 -3 -13 2 -20 10 -7 8 -19 15
-26 15 -8 0 -14 5 -14 10 0 6 -7 10 -15 10 -8 0 -15 5 -15 10 0 6 -3 9 -7 8
-7 -2 -86 45 -118 69 -6 4 -17 9 -25 11 -8 2 -17 7 -20 10 -3 4 -18 14 -35 22
-16 8 -32 17 -35 21 -11 12 -90 48 -90 41 0 -4 -5 1 -11 11 -5 9 -18 17 -29
17 -10 0 -20 4 -22 9 -1 5 -12 11 -23 13 -11 1 -26 9 -34 16 -7 7 -26 16 -42
19 -16 3 -26 9 -23 14 3 5 -3 9 -13 9 -10 0 -28 7 -39 15 -12 8 -24 11 -28 8
-3 -3 -6 0 -6 8 0 11 -2 11 -10 -1 -6 -9 -10 -10 -10 -3 0 12 -82 53 -106 53
-8 0 -14 5 -14 11 0 5 -4 8 -8 5 -5 -3 -25 4 -45 14 -21 11 -37 17 -37 14 0
-4 -7 -1 -15 6 -8 7 -15 9 -15 5 0 -4 -11 0 -25 9 -15 10 -25 12 -25 6 0 -7
-7 -4 -16 4 -8 9 -27 19 -42 22 -15 3 -36 10 -47 15 -11 6 -30 11 -43 12 -12
0 -22 5 -22 10 0 4 -4 5 -10 2 -5 -3 -10 -1 -10 4 0 6 -5 11 -11 11 -5 0 -8
-4 -4 -9 3 -5 -8 -3 -25 6 -32 15 -52 21 -83 22 -10 1 -16 5 -13 9 2 4 -3 8
-12 9 -43 3 -158 31 -186 45 -14 7 -16 6 -10 -4 6 -10 5 -11 -7 -1 -8 7 -32
13 -52 15 -20 1 -37 7 -37 13 0 5 -5 3 -10 -5 -5 -8 -10 -10 -10 -4 0 11 -34
19 -130 31 -25 3 -47 8 -50 12 -3 3 -25 7 -50 9 -56 3 -72 6 -87 15 -8 5 -13
3 -13 -3 0 -6 -5 -8 -12 -3 -16 9 -17 9 -114 17 -208 17 -484 25 -484 13 0 -4
-5 -5 -12 -1 -13 9 -148 12 -148 4z"/>
</g>
</svg>
