<?xml version="1.0" standalone="no"?>
<!DOCTYPE svg PUBLIC "-//W3C//DTD SVG 20010904//EN"
 "http://www.w3.org/TR/2001/REC-SVG-20010904/DTD/svg10.dtd">
<svg version="1.0" xmlns="http://www.w3.org/2000/svg"
 width="268.000000pt" height="268.000000pt" viewBox="0 0 268.000000 268.000000"
 preserveAspectRatio="xMidYMid meet">
<metadata>
Created by potrace 1.11, written by Peter Selinger 2001-2013
</metadata>
<g transform="translate(0.000000,268.000000) scale(0.100000,-0.100000)"
fill="#000000" stroke="none">
<path d="M450 2673 c0 -5 14 -14 30 -20 l30 -11 0 -195 c0 -164 -3 -198 -16
-211 -8 -9 -22 -16 -30 -16 -8 0 -14 -4 -14 -10 0 -6 33 -10 80 -10 84 0 100
8 51 27 -26 9 -30 17 -36 64 -3 30 -5 114 -3 188 l3 134 89 -206 c49 -113 92
-204 96 -202 4 2 44 95 91 206 l84 201 3 -168 c1 -93 0 -179 -3 -192 -4 -15
-15 -25 -35 -29 -66 -13 -23 -23 95 -23 119 0 161 10 95 24 l-30 6 0 203 c0
210 3 227 42 227 10 0 18 5 18 10 0 7 -35 10 -97 8 l-97 -3 -60 -147 c-33 -81
-62 -145 -65 -142 -4 3 -33 69 -67 147 l-61 142 -96 3 c-54 1 -97 -1 -97 -5z"/>
<path d="M1167 2674 c-4 -4 7 -13 25 -18 l33 -11 0 -205 0 -205 -33 -11 c-54
-17 -25 -24 100 -24 112 0 152 11 89 23 -27 6 -30 11 -36 59 -8 68 -3 130 12
135 6 2 46 -46 89 -106 l77 -111 73 0 c41 0 74 3 74 6 0 3 -11 15 -25 25 -13
11 -51 59 -84 106 l-61 87 30 12 c36 16 70 68 70 109 0 17 -9 44 -20 62 -34
56 -66 65 -245 71 -88 2 -163 1 -168 -4z m288 -59 c19 -18 25 -35 25 -70 0
-64 -31 -95 -95 -95 l-45 0 0 95 0 95 45 0 c35 0 52 -6 70 -25z"/>
<path d="M1870 2656 c-86 -43 -137 -141 -127 -242 15 -149 143 -242 296 -216
71 12 117 43 165 110 23 32 30 54 34 110 6 85 -8 131 -57 185 -51 57 -100 77
-191 76 -58 0 -85 -5 -120 -23z m192 -31 c14 -14 31 -45 38 -70 18 -63 9 -219
-15 -269 -34 -70 -121 -83 -169 -25 -68 80 -53 335 21 378 35 20 98 13 125
-14z"/>
<path d="M450 1833 l0 -288 44 90 c94 197 248 345 446 432 41 18 83 33 92 33
9 0 20 5 23 10 4 7 -98 10 -299 10 l-306 0 0 -287z"/>
<path d="M1635 2110 c3 -5 13 -10 21 -10 28 0 162 -61 230 -104 134 -86 263
-240 325 -384 l28 -67 1 288 0 287 -306 0 c-201 0 -303 -3 -299 -10z"/>
<path d="M1240 1993 c0 -71 54 -438 76 -515 3 -10 1 -18 -3 -18 -17 0 -43 72
-53 143 -5 40 -16 126 -25 192 -9 66 -18 135 -22 153 l-5 33 -82 -7 c-44 -3
-84 -8 -88 -10 -7 -5 109 -299 154 -388 17 -34 40 -74 50 -89 14 -19 17 -32
11 -38 -22 -22 -71 65 -149 258 -43 107 -84 197 -91 200 -22 9 -164 -47 -156
-61 35 -57 230 -305 281 -359 36 -37 62 -70 59 -73 -12 -12 -88 47 -120 93
-54 78 -219 288 -228 291 -19 7 -152 -91 -138 -101 2 -2 68 -54 147 -116 78
-62 178 -135 222 -161 44 -27 75 -50 68 -53 -23 -8 -111 31 -147 66 -20 19
-93 77 -163 130 l-126 97 -42 -48 c-41 -46 -68 -89 -59 -95 2 -2 78 -36 169
-74 166 -71 285 -113 322 -113 11 0 18 -5 15 -12 -6 -19 -83 -10 -147 17 -114
47 -306 127 -328 136 -21 8 -26 4 -59 -67 -20 -42 -32 -79 -27 -83 16 -14 306
-54 427 -59 117 -4 148 -15 81 -28 -46 -9 -146 -1 -314 25 -193 29 -175 35
-190 -59 -7 -45 -10 -83 -7 -86 15 -15 427 43 506 71 36 12 41 12 41 0 0 -21
-62 -44 -145 -55 -38 -5 -124 -16 -190 -25 -190 -25 -175 -18 -174 -78 0 -29
3 -68 7 -88 l7 -36 110 43 c186 74 257 106 328 147 38 21 72 36 75 32 14 -15
-74 -76 -152 -106 -122 -46 -300 -121 -309 -129 -7 -6 31 -133 49 -161 7 -13
276 192 365 278 48 47 79 69 81 61 8 -21 -39 -83 -90 -118 -108 -77 -292 -223
-292 -233 0 -14 80 -137 89 -137 15 0 238 293 283 372 36 62 49 77 54 64 11
-28 -26 -91 -135 -231 -114 -146 -156 -204 -150 -208 2 -2 32 -27 67 -56 34
-30 64 -52 66 -50 2 2 35 78 74 169 64 153 101 255 116 323 4 15 11 27 18 27
16 0 4 -102 -17 -143 -21 -40 -145 -344 -145 -355 0 -8 149 -77 155 -70 9 8
54 338 61 441 5 75 10 105 17 98 17 -17 12 -167 -11 -306 -11 -71 -22 -148
-24 -170 l-3 -40 83 -14 c45 -8 84 -12 87 -9 13 13 -49 422 -81 531 -3 10 0
17 8 17 21 0 50 -85 59 -172 4 -44 16 -139 25 -210 l17 -130 79 4 c43 3 83 9
87 14 11 11 -104 300 -168 422 -46 91 -47 118 -1 62 32 -39 32 -38 126 -270
37 -91 68 -167 70 -169 4 -5 154 50 159 59 7 11 -218 306 -287 376 -37 39 -56
64 -49 68 18 12 90 -52 149 -133 98 -135 195 -261 199 -261 10 0 142 96 140
101 -8 26 -388 303 -441 322 -6 2 -8 8 -4 12 12 13 81 -12 121 -42 20 -16 100
-77 178 -137 l142 -110 30 35 c54 64 80 100 75 105 -3 2 -78 36 -167 75 -167
72 -299 119 -333 119 -10 0 -16 5 -13 10 18 29 109 4 323 -89 90 -39 167 -71
171 -71 15 0 82 158 69 160 -157 26 -349 51 -435 56 -62 4 -110 10 -108 15 13
20 134 20 260 0 270 -42 255 -42 266 -12 10 26 25 151 18 151 -46 0 -414 -55
-466 -70 -85 -23 -83 -23 -83 -10 0 19 103 60 150 61 25 0 117 10 205 22 153
21 160 23 159 45 -3 103 -5 129 -13 140 -13 21 -393 -136 -482 -199 -24 -17
-39 -16 -39 2 0 19 97 71 240 129 85 34 172 69 193 78 20 8 37 21 37 28 0 14
-47 144 -55 152 -7 8 -294 -209 -370 -280 -41 -38 -75 -64 -75 -56 0 29 81
110 200 197 69 50 140 104 159 120 l34 28 -26 44 c-15 24 -37 57 -50 72 l-24
29 -117 -148 c-65 -81 -138 -182 -163 -225 -43 -74 -63 -95 -63 -66 0 25 48
114 86 158 37 42 201 257 206 270 2 3 -27 31 -64 63 l-67 56 -21 -47 c-50
-112 -119 -285 -149 -375 -30 -91 -51 -123 -51 -80 0 25 29 134 39 146 13 16
131 309 131 324 0 14 -114 72 -141 72 -19 0 -44 -147 -60 -355 -14 -175 -18
-200 -31 -187 -14 14 -5 167 22 356 17 124 20 160 10 166 -7 4 -36 11 -64 14
-28 4 -61 10 -73 13 -20 4 -23 1 -23 -24z m182 -649 c92 -47 89 -197 -4 -254
-131 -80 -279 85 -193 213 14 20 27 37 28 37 1 0 20 7 42 15 42 15 82 12 127
-11z"/>
<path d="M450 618 l0 -298 323 0 322 0 -90 31 c-247 83 -428 256 -532 508
l-23 56 0 -297z"/>
<path d="M2208 842 c-63 -155 -201 -319 -343 -407 -42 -27 -120 -63 -173 -82
l-97 -33 323 0 322 0 0 295 c0 162 -1 295 -2 295 -2 0 -15 -31 -30 -68z"/>
<path d="M450 110 c0 -91 3 -110 15 -110 11 0 15 12 15 50 l0 50 50 0 c38 0
50 4 50 15 0 11 -12 15 -50 15 l-50 0 0 35 0 35 60 0 c33 0 60 4 60 10 0 6
-32 10 -75 10 l-75 0 0 -110z"/>
<path d="M770 110 c0 -91 3 -110 15 -110 12 0 15 19 15 110 0 91 -3 110 -15
110 -12 0 -15 -19 -15 -110z"/>
<path d="M990 110 c0 -90 3 -110 15 -110 11 0 15 18 17 85 l3 85 58 -85 c32
-47 64 -85 72 -85 12 0 15 20 15 110 0 90 -3 110 -15 110 -11 0 -15 -18 -17
-82 l-3 -83 -55 82 c-78 117 -90 114 -90 -27z"/>
<path d="M1360 110 l0 -110 64 0 c46 0 70 5 85 18 28 22 41 81 30 129 -12 56
-39 73 -115 73 l-64 0 0 -110z m135 65 c19 -18 25 -35 25 -65 0 -56 -34 -90
-90 -90 l-40 0 0 90 0 90 40 0 c30 0 47 -7 65 -25z"/>
<path d="M1730 110 l0 -110 80 0 c47 0 80 4 80 10 0 6 -30 10 -70 10 l-70 0 0
40 0 40 66 0 c48 0 65 3 62 13 -3 7 -28 13 -66 15 l-62 3 0 34 0 35 64 0 c36
0 68 5 71 10 4 6 -23 10 -74 10 l-81 0 0 -110z"/>
<path d="M2060 110 c0 -91 3 -110 15 -110 11 0 15 12 15 45 l0 45 50 0 c54 0
70 -15 70 -64 0 -17 6 -26 15 -26 12 0 14 8 9 42 -4 24 -10 47 -14 51 -4 5 -2
21 6 35 19 36 18 48 -6 72 -16 16 -33 20 -90 20 l-70 0 0 -110z m144 68 c19
-31 -4 -53 -63 -56 l-51 -3 0 41 0 41 51 -3 c36 -2 55 -8 63 -20z"/>
</g>
</svg>
