<?xml version="1.0" encoding="utf-8"?>
<!-- Generator: Adobe Illustrator 24.0.0, SVG Export Plug-In . SVG Version: 6.00 Build 0)  -->
<svg version="1.1" id="Layer_1" xmlns="http://www.w3.org/2000/svg" xmlns:xlink="http://www.w3.org/1999/xlink" x="0px" y="0px"
	 viewBox="0 0 5000 664.72" style="enable-background:new 0 0 5000 664.72;" xml:space="preserve">
<style type="text/css">
	.st0{fill:none;}
	.st1{fill:#0091B3;}
	.st2{font-family:'TimesNewRomanPS-BoldMT';}
	.st3{font-size:653.0387px;}
	.st4{letter-spacing:65;}
	.st5{font-family:'HelveticaNeue-Thin';}
	.st6{font-size:604.8278px;}
	.st7{letter-spacing:60;}
</style>
<g>
	<rect x="934" y="115.9" class="st0" width="1805.91" height="454.04"/>
	<text transform="matrix(1 0 0 1 934.0012 548.8571)" class="st1 st2 st3 st4">FIND</text>
</g>
<g>
	<g>
		<g>
			<path class="st1" d="M579.46,87.96c37.35,37.08,63.78,79.63,79.41,127.56V6.73h-228.3C488.22,19.72,537.89,46.72,579.46,87.96z"
				/>
			<path class="st1" d="M88.14,88.21c42.18-41.37,90.71-68.47,145.45-81.48H7.27v210.02C23.1,168.49,50.01,125.59,88.14,88.21z"/>
			<path class="st1" d="M603.94,543.57c-46.4,60.36-106.89,98.54-181.31,114.74h236.23V439.65
				C646.89,476.88,628.63,511.54,603.94,543.57z"/>
			<path class="st1" d="M65.51,549.3c-26.37-32.75-45.74-68.68-58.25-107.81v216.82h237.94C171.5,642.63,111.54,606.34,65.51,549.3z
				"/>
		</g>
		<path class="st1" d="M413.54,384.38c18.37,5.65,34.07,14.56,48.62,27.69c19.69,17.8,41.87,32.78,63,48.99
			c12.79,9.85,25.59,19.67,39.52,30.34c13.57-16.2,26.57-31.7,40.82-48.69c-65.44-25-124.2-59.73-192.27-72.51
			c2.31-3.88,5.06-8.12,7.28-7.85c15.17,1.75,30.74,2.86,45.2,7.32c14.46,4.48,27.64,13.03,41.72,19.03
			c29.57,12.59,59.34,24.67,89.28,37.08c10.91-17.89,20.23-36.07,26.26-57.41c-68.15-7.14-133.75-25.23-202.7-19.74
			c1.09-4.19,2.58-9.26,4.7-9.58c15.41-2.19,31.14-5.62,46.45-4.49c23.49,1.77,46.7,7.11,70.1,10.52
			c23.29,3.37,46.71,6.2,70.53,9.37c5.1-20.71,11.58-40.06,9.68-62.07c-67.01,10.42-135.02,10.51-202.21,34.92
			c2.08-6.04,2.26-11.38,4.62-12.62c14.86-7.8,29.5-16.49,47.18-16.51c7.08,0,14.17-0.49,21.18-1.36c20.54-2.5,41.08-5.31,61.6-7.97
			c17.85-2.35,35.69-4.66,55.52-7.24c-1.91-20.96-3.77-41.4-5.72-63.26c-63.97,28.24-129.93,45.73-185.52,84.96
			c-5.84-6.17-4.31-10.12,0.57-14.42c14.04-12.38,29.23-21.48,47.44-27.84c36.73-12.83,72.34-28.92,108.36-43.77
			c11.78-4.87,11.71-5.02,7.82-17.41c-0.96-3.11-1.58-6.33-2.75-9.34c-4.8-12.19-9.77-24.31-15.23-37.89
			C510.47,196.42,451.34,230,406.45,282.59c-2.22-3.86-4.97-8.84-3.55-10.73c8.87-11.99,17.52-24.6,28.52-34.49
			c12.82-11.53,28.17-20.23,42.07-30.65c24.29-18.22,48.32-36.82,72.67-55.41c-10.41-18.46-20.67-36.15-36.8-51.03
			c-40.1,55.07-88.44,102.86-116.74,164.64c-8.34-2.74-9.8-6.83-6.69-13.35c2.56-5.29,4.25-11.03,6.33-16.55
			c8.81-23.34,29.05-38.21,42.9-57.87c17.84-25.35,37.46-49.44,57.6-75.75c-15.89-13.4-31.5-26.56-48.09-40.55
			c-14.33,33.14-28.52,63.65-40.72,94.9c-12.29,31.43-22.63,63.63-33.99,96c-5.45-0.57-7.34-3.99-6.65-10.59
			c1.91-18.25,4.13-35.8,13.84-52.54c9.43-16.19,15.01-34.61,22.24-52.07c9.23-22.32,18.41-44.62,27.75-67.28
			c-18.28-10.88-36.12-20.78-56.78-25.88c-5.11,34.56-11.01,67.79-14.73,101.23c-3.71,33.3-5.26,66.82-7.77,100.45
			c-8.32,1.76-8.78-5.37-9.89-11.38c-3.35-17.85-2.82-35.23,0.68-53.51c6.81-35.37,10.3-71.42,15.06-107.2
			c0.84-6.35,1.16-12.73,1.81-20.41c-20.43-3.59-40.01-7.01-61.26-10.76c4.14,36.32,7.01,69.89,12.07,103.14
			c5.03,33.16,12.26,65.97,18.63,99.36c-5.13,2.47-8.52-0.1-11.56-6.26c-8.33-16.88-13.11-34.07-14.04-53.33
			c-1.26-26.53-6.25-52.88-9.77-79.27c-2.09-15.77-4.34-31.51-6.8-49.16c-20.98,1.95-41.3,3.84-63.01,5.85
			c28.41,64.11,45.61,130.14,85.22,185.64c-6.57,5.07-10.56,4.82-14.37-0.53c-3.43-4.81-7.28-9.34-11.43-13.56
			c-11.56-11.79-13.47-27.94-19.39-42.28c-12.89-31.09-25.98-62.12-38.49-93.37c-7.28-18.17-7.01-18.85-25.65-12.95
			c-13.57,4.3-26.6,10.24-41.42,16.03c43.42,54.59,77.38,113.46,130.27,157.42c-3.66,2.95-5.91,4.74-8.23,6.63
			c-17.6-11.73-33.91-23.11-45.16-41.99c-12.16-20.46-28.66-38.3-43.21-57.28c-11.64-15.21-23.24-30.45-35.14-46.03
			c-18.81,10.21-36.24,20.72-51.08,36.62c55.03,40.29,102.97,88.51,165.16,118.63c-3.48,3.01-7.39,6.35-10.36,5.66
			c-7.72-1.76-14.9-5.66-22.49-8c-16.63-5.2-26.16-19.75-39.35-29.47c-30.6-22.56-60.43-46.18-90.9-69.61
			c-14.77,15-29.76,29.1-39.21,48.94c63.15,24.66,121.76,58.6,188.72,70.08c-0.5,7.96-3.28,10.74-10.76,9.92
			c-18.2-2.01-35.58-4.62-52.46-13.77c-20.95-11.37-43.89-18.95-65.99-28.09c-17.67-7.32-35.37-14.57-53.41-21.99
			c-10.87,18.33-21.07,35.97-25.44,57.21c67.56,7.51,133.09,25.14,201.85,20.3c-1.42,4.19-3.19,9.24-5.75,9.69
			c-13.64,2.3-27.66,5.63-41.18,4.53c-23.21-1.96-46.12-7.23-69.21-10.56c-24.87-3.62-49.82-6.63-76.68-10.16
			c-3.64,20.4-7.16,40.19-11.09,62.24c69.08-10.47,137.08-9.76,200.72-33.97c4.35,7.65,2.3,11.03-4.13,14.27
			c-17.15,8.58-34.74,12.81-54.12,14.28c-35.36,2.68-70.45,8.94-105.67,13.26c-22.12,2.75-22.46,2.43-20.81,24.57
			c1.02,13.36,3.12,26.58,4.92,41.43c63.92-28.33,129.71-45.37,184.86-84.9c6.03,7.02,4.12,10.74-1.09,15.17
			c-14.04,11.93-29.03,20.87-46.87,27.28c-40.21,14.51-79.34,32.08-120.7,49.11c7.23,19.61,14.31,38.77,22.01,59.57
			c54.54-44.12,113.94-77.83,157.75-131.08c2.71,3.53,4.48,5.88,6.48,8.51c-4.22,6.4-8.75,12.58-12.55,19.17
			c-9.9,17.03-28.22,23.8-42.62,35.25c-27.74,22.04-56.19,43.23-84.08,65.05c-2.04,1.62-3.95,6.79-2.93,8.38
			c10.01,15.93,20.65,31.45,32.3,48.85c41.12-56.95,89.96-104.79,118.18-166.99c7.89,3.1,8.49,6.97,6.36,13.71
			c-5.6,17.69-14.61,32.56-26.77,47.02c-27.51,32.78-52.5,67.66-79.5,102.95c15.83,13.42,31.37,26.57,48.4,41.01
			c25.13-65.84,59.92-124.62,70.9-191.55c8.85,0.36,10.15,4.48,9.76,10.86c-1.2,17.76-3.19,34.65-12.96,50.78
			c-8.78,14.49-13.63,31.35-20.18,47.19c-10.16,24.47-20.3,48.97-31.14,75.19c18.85,8.78,37.35,17.36,57.63,26.8
			c7.4-69.68,25.5-135.36,20.01-204.41c4.21,1.34,9.36,3.09,9.71,5.52c2.22,15.13,5.49,30.57,4.35,45.58
			c-1.84,23.78-7.1,47.28-10.56,70.97c-3.37,23.02-6.3,46.13-9.63,70.84c20.83,3.65,40.68,7.1,62.57,10.94
			c-10.27-69.18-10.91-136.97-33.99-201.43c4.02-0.93,6.55-1.51,10.14-2.35c8.1,18.02,19.7,34.52,17.59,55.81
			c-0.48,4.93,0.52,10.03,1.18,15.05c2.75,21.11,5.65,42.24,8.43,63.34c2.38,17.79,4.73,35.59,7.05,53.11
			c22.62,2.57,51.52-0.75,61.87-6.93c-12.54-31.22-26.04-62.12-37.38-93.79c-11.36-31.88-29.01-60.31-45.12-90.81
			c4.21-0.5,9.49-1.18,11.34,1.04c8.67,10.39,17.29,21.03,24.12,32.66c4.65,7.96,5.9,17.87,9.41,26.6
			c9.35,23.29,19.12,46.44,28.74,69.61c5.5,13.26,11.02,26.5,17.07,41.09c20.02-7.41,38.95-14.42,59.36-21.96
			C469.83,509.25,436,449.97,382.78,405.95c3.48-2.75,5.74-4.52,9.74-7.66c11.93,10.23,25.51,19.2,35.6,31.12
			c15.41,18.2,28.15,38.64,42.45,57.81c14.31,19.14,29.13,37.88,45,58.5c17.17-12.07,33.86-23.73,51.95-36.42
			c-56.73-41.47-104.74-90-166.98-118.44C404.02,383.73,407.42,382.49,413.54,384.38z M333.06,387.59
			c-30.41,0-55.06-24.67-55.06-55.05c0-30.44,24.65-55.11,55.06-55.11c30.43,0,55.1,24.67,55.1,55.11
			C388.16,362.92,363.5,387.59,333.06,387.59z"/>
	</g>
</g>
<g>
	<g>
		<rect x="793.02" y="6.73" class="st1" width="28.57" height="651.58"/>
	</g>
</g>
<g>
	<rect x="2843.93" y="118.54" class="st0" width="4010.35" height="466.74"/>
	<text transform="matrix(1 0 0 1 2843.9297 550.3795)" class="st1 st5 st6 st7">PARTS</text>
</g>
</svg>
