<?xml version="1.0" encoding="utf-8"?>
<svg viewBox="0 0 527.268 135.947" xmlns="http://www.w3.org/2000/svg">
  <defs>
    <style>.cls-1{font-size:76.48px;font-family:TimesNewRomanPS-BoldMT, Times New Roman;font-weight:700;letter-spacing:0.1em;}.cls-1,.cls-3,.cls-4{fill:#1a7c96;}.cls-2{letter-spacing:0.03em;}.cls-4{font-size:70.83px;font-family:HelveticaNeue-Thin, Helvetica Neue;font-weight:200;letter-spacing:0.1em;}.cls-5{letter-spacing:0.08em;}</style>
  </defs>
  <g id="Layer_2" data-name="Layer 2">
    <g id="Layer_1-2" data-name="Layer 1">
      <text class="cls-1" style="white-space: pre;" x="154.775" y="65.017">ELEN<tspan class="cls-2" x="393.625" y="65.017" style="font-size: 76.5px; word-spacing: 0px; letter-spacing: 2.3px;">A</tspan><tspan x="450.825" y="65.017" style="font-size: 76.5px; word-spacing: 0px; letter-spacing: 7.65px;">’S</tspan></text>
      <path class="cls-3" d="M 113.891 19.664 C 120.849 26.483 126.064 34.884 129.094 44.155 L 129.094 4.075 L 85.399 4.075 C 96.191 6.425 106.081 11.836 113.891 19.664 Z" style=""/>
      <path class="cls-3" d="M 19.85 19.713 C 27.494 12.026 37.113 6.613 47.639 4.075 L 4.37 4.075 L 4.37 44.384 C 7.457 35.023 12.77 26.555 19.85 19.713 Z" style=""/>
      <path class="cls-3" d="M 118.599 107.135 C 110.088 118.475 97.742 126.309 83.879 129.166 L 129.11 129.166 L 129.11 87.185 C 126.791 94.398 123.234 101.149 118.599 107.135 Z" style=""/>
      <path class="cls-3" d="M 15.518 108.233 C 10.551 102.099 6.77 95.089 4.37 87.562 L 4.37 129.199 L 49.928 129.199 C 36.345 126.513 24.153 119.084 15.518 108.233 Z" style=""/>
      <path class="cls-3" d="M 82.147 76.563 C 85.605 77.62 88.783 79.44 91.448 81.89 C 95.224 85.3 99.474 88.185 103.511 91.283 L 111.08 97.119 L 118.893 87.775 C 106.372 82.972 95.109 76.3 82.081 73.842 C 82.523 73.104 83.062 72.202 83.487 72.35 C 86.406 72.547 89.301 73.014 92.134 73.743 C 94.897 74.612 97.431 76.251 100.111 77.399 C 105.718 79.825 111.472 82.136 117.161 84.513 C 119.343 81.094 121.037 77.387 122.195 73.497 C 109.118 72.12 96.58 68.58 83.389 69.711 C 83.601 68.907 83.879 67.924 84.288 67.875 C 87.213 67.27 90.194 66.979 93.18 67.006 C 97.676 67.35 102.122 68.366 106.601 69.022 C 111.08 69.678 115.542 70.219 120.103 70.825 C 121.084 66.858 122.31 63.137 121.95 58.908 C 109.118 60.908 96.106 60.924 83.242 65.613 C 83.634 64.449 83.683 63.432 84.124 63.186 C 86.969 61.695 89.78 60.023 93.164 60.023 C 94.537 59.997 95.907 59.888 97.267 59.695 C 101.19 59.219 105.13 58.678 109.053 58.17 L 119.678 56.777 C 119.318 52.744 118.959 48.827 118.583 44.63 C 106.339 50.056 93.72 53.416 83.078 60.941 C 81.95 59.76 82.245 58.99 83.176 58.17 C 85.826 55.808 88.915 53.992 92.265 52.826 C 99.294 50.367 106.11 47.286 113.009 44.433 C 115.265 43.499 115.248 43.466 114.496 41.155 C 114.316 40.548 114.202 39.942 113.973 39.352 C 113.058 37.024 112.11 34.696 111.063 32.09 C 100.7 40.483 89.372 46.941 80.79 57.023 C 80.365 56.285 79.842 55.384 80.103 54.974 C 81.7 52.611 83.529 50.414 85.563 48.417 C 88.015 46.204 90.957 44.532 93.622 42.532 C 98.264 39.04 102.874 35.467 107.533 31.893 C 105.721 28.259 103.343 24.939 100.487 22.058 C 92.804 32.631 83.552 41.811 78.142 53.679 C 76.507 53.138 76.262 52.351 76.867 51.105 C 77.471 49.859 77.668 48.991 78.076 47.925 C 79.711 43.45 83.634 40.598 86.25 36.827 C 89.666 31.91 93.426 27.336 97.283 22.287 L 88.113 14.468 C 85.367 20.828 82.653 26.68 80.316 32.68 C 77.978 38.68 75.984 44.892 73.777 51.105 C 72.731 51.007 72.371 50.335 72.502 49.072 C 72.635 45.558 73.539 42.115 75.15 38.991 C 76.789 35.757 78.209 32.417 79.4 28.992 C 81.198 24.713 82.964 20.353 84.746 16.074 C 81.385 13.904 77.722 12.246 73.875 11.157 C 72.911 17.796 71.767 24.172 71.064 30.598 C 70.361 37.024 70.05 43.302 69.576 49.859 C 67.941 50.187 67.941 48.827 67.68 47.679 C 67.07 44.276 67.114 40.787 67.811 37.401 C 69.118 30.582 69.756 23.631 70.704 16.796 C 70.851 15.566 70.917 14.337 71.047 12.878 C 67.14 12.157 63.381 11.517 59.311 10.812 C 60.111 17.779 60.667 24.221 61.632 30.598 C 62.596 36.975 63.969 43.302 65.195 49.679 C 64.214 50.154 63.561 49.679 62.988 48.482 C 61.378 45.297 60.459 41.805 60.291 38.237 C 60.046 33.155 59.098 28.09 58.428 23.025 C 58.019 19.992 57.594 16.976 57.12 13.583 L 45.056 14.714 C 50.5 27.025 53.785 39.696 61.403 50.351 C 60.144 51.318 59.376 51.269 58.657 50.236 C 57.999 49.314 57.266 48.448 56.466 47.646 C 54.259 45.384 53.883 42.286 52.756 39.532 C 50.287 33.565 47.852 27.598 45.383 21.599 C 43.994 18.107 44.043 17.976 40.479 19.107 C 37.88 19.943 35.379 21.074 32.551 22.189 C 40.855 32.664 47.361 43.974 57.48 52.417 L 55.845 53.679 C 52.38 51.704 49.419 48.949 47.198 45.63 C 44.66 41.803 41.898 38.13 38.926 34.631 L 32.208 25.795 C 28.572 27.576 25.257 29.953 22.4 32.827 C 32.993 40.565 42.163 49.859 54.08 55.597 C 53.409 56.17 52.657 56.81 52.085 56.679 C 50.614 56.351 49.241 55.597 47.786 55.154 C 44.599 54.154 42.768 51.351 40.251 49.499 C 34.398 45.155 28.677 40.63 22.842 36.122 C 19.823 38.806 17.285 41.988 15.338 45.532 C 27.435 50.253 38.649 56.777 51.464 58.974 C 51.366 60.514 50.843 61.039 49.405 60.875 C 45.917 60.676 42.504 59.779 39.368 58.236 C 35.253 56.218 31.035 54.417 26.732 52.843 L 16.515 48.63 C 14.261 51.979 12.602 55.695 11.611 59.613 C 24.542 61.055 37.079 64.432 50.255 63.514 C 49.977 64.318 49.633 65.285 49.143 65.367 C 46.562 65.978 43.916 66.27 41.264 66.235 C 36.818 65.858 32.437 64.842 28.007 64.203 C 23.25 63.514 18.477 62.941 13.295 62.252 C 12.609 66.17 11.938 69.973 11.186 74.202 C 24.411 72.202 37.423 72.333 49.601 67.645 C 50.434 69.121 50.042 69.776 48.816 70.399 C 45.577 71.991 42.054 72.922 38.452 73.137 C 31.685 73.645 24.967 74.858 18.232 75.678 C 13.998 76.202 13.933 76.153 14.243 80.399 C 14.439 82.956 14.832 85.497 15.191 88.349 C 27.419 82.907 40.022 79.645 50.565 72.055 C 51.726 73.399 51.366 74.12 50.369 74.973 C 47.721 77.25 44.679 79.022 41.395 80.202 C 33.794 83.021 26.274 86.398 18.346 89.66 L 22.564 101.135 C 33.009 92.66 44.37 86.185 52.756 75.973 L 53.998 77.612 C 53.197 78.841 52.363 80.038 51.595 81.3 C 49.699 84.579 46.201 85.874 43.422 88.07 C 38.109 92.3 32.666 96.365 27.32 100.561 C 26.928 100.873 26.569 101.856 26.765 102.201 C 28.677 105.25 30.721 108.233 32.944 111.577 C 40.839 100.561 50.14 91.382 55.584 79.366 C 57.104 79.972 57.218 80.71 56.81 82.005 C 55.725 85.328 53.978 88.395 51.677 91.021 C 46.413 97.316 41.624 104.02 36.458 110.79 L 45.727 118.708 C 50.532 106.069 57.169 94.791 59.294 81.939 C 60.929 81.939 61.239 82.808 61.174 84.021 C 61.163 87.429 60.31 90.78 58.689 93.775 C 57.171 96.692 55.882 99.723 54.832 102.84 L 48.865 117.265 L 59.948 122.429 C 61.354 109.053 64.852 96.447 63.773 83.185 C 64.574 83.448 65.571 83.775 65.637 84.251 C 66.234 87.129 66.519 90.064 66.487 93.004 C 66.127 97.562 65.13 102.069 64.46 106.627 C 63.789 111.184 63.217 115.429 62.547 120.216 L 74.529 122.314 C 72.568 109.036 72.437 96.086 67.99 83.644 L 69.936 83.202 C 71.489 86.661 73.712 89.759 73.303 93.906 C 73.266 94.879 73.343 95.853 73.532 96.807 C 74.055 100.856 74.611 104.905 75.167 108.954 C 75.624 112.38 76.082 115.79 76.523 119.151 C 80.855 119.659 86.331 119.019 88.375 117.823 C 85.972 111.839 83.471 105.905 81.215 99.791 C 78.959 93.677 75.657 88.201 72.568 82.349 C 73.385 82.251 74.398 82.136 74.742 82.546 C 76.452 84.509 77.999 86.608 79.368 88.824 C 80.096 90.49 80.708 92.204 81.198 93.955 C 82.98 98.43 84.86 102.873 86.691 107.331 C 87.753 109.872 88.8 112.413 89.96 115.216 L 101.403 111.003 C 92.919 100.545 86.446 89.201 76.295 80.71 L 78.158 79.235 C 80.579 81.052 82.858 83.052 84.974 85.218 C 87.917 88.71 90.352 92.644 93.148 96.316 C 95.943 99.988 98.722 103.594 101.762 107.545 L 111.701 100.561 C 100.814 92.595 91.578 83.284 79.662 77.809 C 80.316 76.448 80.97 76.202 82.147 76.563 Z M 66.732 77.186 C 58.615 77.173 53.556 68.354 57.625 61.312 C 61.695 54.269 71.84 54.285 75.887 61.34 C 76.807 62.944 77.292 64.762 77.292 66.612 C 77.301 72.462 72.565 77.204 66.732 77.186 Z" style=""/>
      <rect class="cls-3" x="139.357" y="3.347" width="6.991" height="127.289" style=""/>
      <text class="cls-4" style="white-space: pre;" x="236.041" y="127.1">LI<tspan class="cls-5" x="297.661" y="127.1" style="font-size: 70.8px; word-spacing: 0px; letter-spacing: 5.66px;">S</tspan><tspan x="347.811" y="127.1" style="font-size: 70.8px; word-spacing: 0px; letter-spacing: 7.08px;">T</tspan></text>
    </g>
  </g>
</svg>